<?xml version="1.0" encoding="UTF-8"?>
<svg id="Layer_2" data-name="Layer 2" xmlns="http://www.w3.org/2000/svg" viewBox="0 0 108.89 108.89">

    <g id="Layer_1-2" data-name="Layer 1">
        <path class="cls-1" d="M90.74,36.3h-15.12c-1.67,0-3.02-1.35-3.02-3.02v-15.12c0-10.02-8.13-18.15-18.15-18.15s-18.15,8.13-18.15,18.15v15.12c0,1.67-1.35,3.02-3.02,3.02h-15.12C8.13,36.3,0,44.42,0,54.45s8.13,18.15,18.15,18.15h15.12c1.67,0,3.02,1.35,3.02,3.02v15.12c0,10.02,8.13,18.15,18.15,18.15s18.15-8.13,18.15-18.15v-15.12c0-1.67,1.35-3.02,3.02-3.02h15.12c10.02,0,18.15-8.13,18.15-18.15s-8.13-18.15-18.15-18.15ZM90.74,57.47h-15.12c-10.02,0-18.15,8.13-18.15,18.15v15.12c0,1.67-1.35,3.02-3.02,3.02s-3.02-1.35-3.02-3.02v-15.12c0-10.02-8.13-18.15-18.15-18.15h-15.12c-1.67,0-3.02-1.35-3.02-3.02s1.35-3.02,3.02-3.02h15.12c10.02,0,18.15-8.13,18.15-18.15v-15.12c0-1.67,1.35-3.02,3.02-3.02s3.02,1.35,3.02,3.02v15.12c0,10.02,8.13,18.15,18.15,18.15h15.12c1.67,0,3.02,1.35,3.02,3.02s-1.35,3.02-3.02,3.02Z"/>
    </g>
</svg>